# xmcd CD database file
#
# Track frame offsets:
#	183
#	12233
#	43425
#	63613
#	101593
#	126083
#	154408
#
# Disc length: 2301 seconds
#
# Revision: 0
# Processed by: cddbd v1.5PL3 Copyright (c) Steve Scherf et al.
# Submitted via: CDex 1.51
#
DISCID=6108fb07
DTITLE=Jesse Austing Band, The - Steel Trap
DYEAR=1991
DGENRE=Blues
TTITLE0=Steel Trap
TTITLE1=That Cold Feeling
TTITLE2=I'd Rather Drink Muddy Water
TTITLE3=Miss My Love
TTITLE4=Bridgeport
TTITLE5=Please Send Me Someone to Love
TTITLE6=Everyday I Have The Blues
EXTD=YEAR: 1991
EXTT0=
EXTT1=
EXTT2=
EXTT3=
EXTT4=
EXTT5=
EXTT6=
PLAYORDER=
